<?xml version="1.0" standalone="no"?>
<!DOCTYPE svg PUBLIC "-//W3C//DTD SVG 20010904//EN"
 "http://www.w3.org/TR/2001/REC-SVG-20010904/DTD/svg10.dtd">
<svg version="1.0" xmlns="http://www.w3.org/2000/svg"
 width="448.000000pt" height="392.000000pt" viewBox="0 0 448.000000 392.000000"
 preserveAspectRatio="xMidYMid meet">

<path d="M1658 3703 c-43 -27 -76 -100 -98 -219 -59 -309 -92 -366 -321 -550
-133 -107 -169 -154 -169 -224 0 -69 36 -117 163 -218 133 -106 215 -192 245
-255 29 -61 58 -168 82 -299 26 -144 45 -185 103 -223 49 -32 125 -23 259 29
265 103 351 105 588 14 143 -55 205 -69 252 -59 90 21 118 66 153 248 58 302
93 358 340 559 112 90 145 136 145 204 0 70 -32 114 -155 213 -135 108 -187
159 -226 216 -37 56 -82 197 -103 321 -20 121 -29 152 -56 196 -29 45 -67 64
-132 64 l-53 -1 35 -19 c66 -34 93 -137 71 -266 -13 -72 -56 -213 -71 -228 -4
-4 -32 11 -62 34 -50 41 -179 110 -204 110 -6 0 -17 -6 -23 -14 -9 -11 3 -20
63 -49 41 -19 100 -55 132 -78 231 -175 307 -503 180 -771 -84 -178 -250 -307
-440 -343 -95 -18 -138 -18 -241 0 -121 21 -212 71 -310 169 -132 131 -188
265 -188 446 0 257 133 464 370 577 50 24 70 39 66 49 -3 8 -13 14 -22 14 -28
0 -134 -55 -199 -105 -35 -26 -64 -46 -65 -44 -38 60 -79 226 -79 319 0 108
24 158 87 186 29 13 28 13 -30 13 -39 0 -70 -5 -87 -16z m-83 -994 l0 -151
-65 7 c-133 13 -292 69 -340 120 -23 24 -23 25 -4 46 55 61 235 120 384 128
l25 1 0 -151z m1537 120 c78 -22 136 -49 186 -86 l34 -25 -29 -30 c-52 -57
-192 -106 -348 -123 l-60 -6 0 151 0 152 74 -7 c40 -4 105 -16 143 -26z
m-1268 -663 c41 -29 100 -64 130 -77 31 -12 56 -26 56 -30 0 -12 -80 -110
-128 -155 -58 -56 -112 -93 -159 -109 -36 -12 -39 -12 -47 8 -15 36 -11 167 7
237 18 66 57 180 63 180 1 0 37 -24 78 -54z m885 0 c64 -173 79 -364 28 -374
-31 -6 -104 38 -176 104 -86 79 -152 165 -132 172 45 15 172 87 206 116 22 20
43 35 47 36 4 0 16 -24 27 -54z"/>
<path d="M1273 3345 c-92 -40 -89 -172 5 -212 77 -32 152 20 152 106 0 55 -20
88 -66 107 -41 17 -50 17 -91 -1z"/>
<path d="M3115 3346 c-50 -22 -70 -52 -70 -106 0 -138 190 -156 220 -21 18 82
-74 160 -150 127z"/>
<path d="M2092 3280 c-245 -65 -412 -265 -436 -525 -31 -329 243 -635 570
-635 255 0 473 155 555 395 78 226 28 448 -140 615 -152 151 -344 203 -549
150z m375 -140 c27 -53 23 -142 -9 -212 -15 -32 -33 -58 -40 -58 -30 1 -88
113 -88 170 0 38 26 119 51 160 l21 34 24 -29 c13 -17 32 -46 41 -65z m-282
-124 c120 -32 188 -93 189 -169 1 -40 0 -42 -28 -40 -127 9 -246 105 -246 198
0 29 12 31 85 11z m415 -60 c0 -46 -36 -95 -92 -124 -56 -29 -72 -23 -63 26 9
49 31 78 79 107 58 35 76 33 76 -9z m-659 -100 c-10 -11 -5 -22 20 -51 l32
-36 38 37 c30 29 36 41 28 51 -9 10 -3 13 30 13 38 0 42 -2 36 -20 -7 -23 22
-258 35 -282 15 -26 13 -28 -26 -28 -31 0 -36 3 -31 20 3 11 -2 72 -11 136
l-16 116 -27 -33 c-24 -29 -25 -35 -13 -58 18 -34 17 -52 -2 -79 -21 -30 -59
-29 -81 4 -14 22 -15 31 -5 57 10 25 9 35 -3 54 -22 33 -35 28 -36 -14 0 -21
-2 -47 -4 -58 -12 -75 -13 -115 -5 -120 19 -12 -1 -25 -37 -25 -30 0 -34 3
-28 18 4 9 10 31 12 47 2 17 11 72 19 124 9 52 13 105 10 117 -6 22 -3 24 35
24 35 0 39 -2 30 -14z m670 -42 c-2 -25 1 -34 13 -34 24 0 30 -21 8 -27 -19
-4 -20 -11 -16 -81 2 -43 5 -88 6 -102 4 -34 -25 -38 -40 -5 -7 14 -12 62 -12
105 0 76 -11 103 -25 61 -7 -24 -43 -37 -58 -22 -7 7 -6 15 3 26 16 20 1 19
-29 -1 -22 -16 -23 -21 -19 -105 l4 -89 -27 0 c-29 0 -46 14 -29 25 14 9 0
158 -17 170 -12 9 -11 13 1 30 14 19 15 19 35 1 20 -18 22 -18 40 -2 12 11 32
17 53 15 58 -4 71 0 64 18 -7 16 32 68 43 57 3 -3 4 -21 2 -40z m-317 -55 c36
-29 54 -67 63 -136 4 -32 8 -62 8 -68 0 -9 -53 -15 -129 -16 -62 0 -101 86
-60 132 15 17 15 19 0 34 -54 54 54 104 118 54z m-304 -300 c0 -5 -13 -9 -28
-9 -51 0 -69 -42 -33 -74 24 -22 41 -14 34 15 -4 12 -11 18 -20 15 -8 -4 -13
-1 -11 5 2 6 7 10 11 10 4 -1 15 -1 25 -1 12 0 17 -8 17 -30 0 -20 -6 -32 -17
-36 -63 -20 -101 71 -44 103 21 11 66 13 66 2z m240 0 c0 -5 -16 -9 -35 -9
-29 0 -36 -4 -41 -25 -4 -18 -1 -32 11 -45 24 -27 35 -25 35 6 0 20 -4 25 -16
20 -9 -3 -14 -1 -12 5 2 6 7 10 11 10 4 -1 13 -1 21 -1 8 0 16 -13 18 -30 3
-22 0 -31 -14 -36 -47 -14 -87 34 -66 81 6 13 18 25 26 27 35 7 62 5 62 -3z
m40 -49 c0 -73 -17 -80 -22 -9 -2 42 5 69 19 69 2 0 3 -27 3 -60z m153 18 c14
-2 23 -11 25 -26 5 -30 -14 -52 -44 -52 -22 0 -24 4 -24 53 0 54 12 87 18 49
2 -12 12 -22 25 -24z m149 -23 c2 -32 -1 -55 -7 -55 -5 0 -10 25 -10 55 0 71
12 71 17 0z m-494 -3 c4 -28 -14 -52 -38 -52 -26 0 -43 26 -36 55 6 22 11 26
39 23 25 -2 33 -8 35 -26z m280 16 c30 -30 0 -75 -43 -64 -19 5 -25 13 -25 35
0 15 3 31 7 34 11 11 48 8 61 -5z m160 0 c5 -7 12 -24 14 -38 3 -21 -1 -25
-27 -25 -27 0 -30 3 -33 38 -3 31 0 37 16 37 11 0 24 -6 30 -12z m-80 -130
c-1 -16 -7 -28 -15 -28 -16 0 -17 12 -1 28 9 9 9 12 0 12 -7 0 -12 4 -12 8 0
5 6 9 14 9 9 0 14 -10 14 -29z m100 0 c-1 -20 -6 -28 -20 -28 -10 0 -18 5 -18
11 0 8 -4 8 -14 0 -10 -9 -16 -8 -26 4 -21 25 -5 43 39 42 37 -1 39 -3 39 -29z
m24 2 c-2 -16 -6 -30 -8 -30 -2 0 -4 14 -4 30 0 17 4 30 8 30 5 0 7 -13 4 -30z"/>
<path d="M2411 2934 c0 -11 3 -14 6 -6 3 7 2 16 -1 19 -3 4 -6 -2 -5 -13z"/>
<path d="M1976 2695 c-7 -19 3 -47 15 -39 5 3 9 14 9 24 0 24 -16 34 -24 15z"/>
<path d="M2220 2751 c0 -6 5 -13 10 -16 6 -4 8 -11 5 -16 -4 -5 9 -9 27 -9
l33 1 -28 24 c-29 26 -47 32 -47 16z"/>
<path d="M2245 2672 c-22 -4 -45 -29 -45 -48 0 -38 75 -60 99 -30 32 38 -4 88
-54 78z"/>
<path d="M2402 2388 c2 -13 8 -23 13 -23 6 0 11 10 13 23 2 15 -2 22 -13 22
-11 0 -15 -7 -13 -22z"/>
<path d="M2023 2404 c-3 -8 -1 -20 5 -26 15 -15 43 -2 36 16 -8 21 -34 28 -41
10z"/>
<path d="M2306 2411 c-10 -16 5 -41 25 -41 21 0 25 20 7 38 -14 14 -25 15 -32
3z"/>
<path d="M2485 2380 c3 -5 10 -10 16 -10 5 0 9 5 9 10 0 6 -7 10 -16 10 -8 0
-12 -4 -9 -10z"/>
<path d="M2465 2300 c-4 -6 -3 -16 3 -22 6 -6 12 -6 17 2 4 6 3 16 -3 22 -6 6
-12 6 -17 -2z"/>
<path d="M2510 2300 c-8 -5 -12 -12 -9 -15 4 -3 12 1 19 10 14 17 11 19 -10 5z"/>
<path d="M1274 2286 c-45 -20 -64 -52 -64 -109 0 -40 5 -53 29 -78 24 -24 38
-29 76 -29 57 0 80 12 100 50 33 65 10 141 -52 166 -40 17 -49 17 -89 0z"/>
<path d="M3103 2286 c-37 -17 -63 -61 -63 -106 0 -75 72 -132 140 -111 57 17
85 53 85 112 0 41 -5 53 -30 79 -37 36 -87 46 -132 26z"/>
<path d="M2194 1766 c-67 -29 -92 -102 -59 -166 40 -78 160 -78 200 0 34 65 7
138 -61 166 -40 17 -41 17 -80 0z"/>
<path d="M3187 1402 c-21 -23 -22 -42 -2 -42 11 0 15 -12 15 -42 l1 -43 29 33
c18 19 30 43 30 60 0 50 -42 69 -73 34z"/>
<path d="M3326 1405 c-20 -21 -21 -45 -1 -45 11 0 15 -12 15 -42 l1 -43 24 28
c45 51 44 108 -2 115 -11 2 -28 -4 -37 -13z"/>
<path d="M2003 1295 c-36 -16 -53 -30 -53 -43 0 -15 6 -17 36 -14 25 3 32 7
23 13 -25 16 28 10 71 -7 38 -16 44 -15 80 1 35 16 46 16 100 5 58 -12 62 -12
85 10 l25 24 -57 18 c-54 17 -61 17 -104 1 -43 -15 -50 -15 -94 1 -60 20 -50
21 -112 -9z"/>
<path d="M368 1190 l-30 -31 4 -107 c5 -116 17 -154 55 -171 34 -16 50 -14 73
9 16 16 20 33 20 95 0 68 -2 76 -25 91 -31 20 -63 10 -71 -23 -10 -38 8 -59
46 -55 25 2 31 -1 28 -15 -2 -14 -13 -18 -43 -18 -32 0 -42 5 -52 25 -17 33
-16 112 1 135 12 17 18 18 51 8 34 -11 39 -10 63 14 l26 26 -45 23 c-57 30
-65 30 -101 -6z"/>
<path d="M625 1197 l-40 -23 -3 -69 -3 -70 66 3 c54 3 65 1 65 -12 0 -21 -39
-36 -91 -36 -45 0 -46 -3 -19 -48 29 -47 79 -66 175 -66 90 0 126 14 169 64
29 35 36 102 13 131 -20 26 -58 41 -88 35 -38 -7 -37 9 1 29 61 32 194 5 255
-51 25 -23 26 -27 12 -47 -8 -12 -39 -31 -68 -43 -62 -23 -66 -41 -21 -86 38
-38 75 -45 101 -19 19 19 21 33 21 126 0 93 2 105 19 115 59 31 181 -20 181
-75 0 -29 -17 -42 -79 -61 -60 -18 -66 -36 -23 -82 38 -40 76 -50 102 -27 18
16 20 32 20 146 l0 128 -27 19 c-38 26 -99 45 -122 37 -11 -3 -31 -19 -45 -36
l-25 -29 -35 24 c-82 55 -221 55 -293 0 -31 -23 -33 -29 -33 -87 l0 -62 53 3
c77 5 104 -38 41 -67 -31 -14 -144 -14 -180 -1 l-28 11 27 25 c30 28 35 65 12
88 -19 19 -76 30 -104 21 -24 -7 -28 7 -6 25 10 8 31 10 64 5 46 -6 51 -5 67
19 19 31 21 29 -31 45 -22 7 -44 14 -50 16 -5 3 -28 -6 -50 -18z m745 -212 c0
-8 -7 -15 -16 -15 -14 0 -14 3 -4 15 7 8 14 15 16 15 2 0 4 -7 4 -15z m-220
-5 c0 -5 -7 -10 -16 -10 -8 0 -12 5 -9 10 3 6 10 10 16 10 5 0 9 -4 9 -10z"/>
<path d="M1528 1193 c-40 -22 -48 -31 -48 -55 0 -24 4 -28 28 -29 15 -1 32 -1
37 0 6 1 -7 -12 -27 -29 -37 -30 -38 -34 -38 -96 0 -56 4 -68 25 -89 27 -28
62 -32 90 -11 17 12 17 16 6 30 -23 27 1 43 41 28 55 -20 81 23 33 54 -22 14
-32 15 -65 5 -22 -6 -44 -21 -50 -31 -12 -23 -33 -26 -49 -6 -47 56 108 93
284 67 l50 -8 -45 -21 c-25 -12 -53 -22 -62 -22 -23 0 -23 -15 2 -55 28 -46
72 -63 105 -41 24 16 25 21 25 116 l0 99 -57 6 c-32 3 -76 9 -98 14 l-40 8 27
13 c23 11 34 10 71 -4 59 -22 84 -20 103 9 9 14 15 27 13 29 -2 3 -28 14 -58
25 l-53 22 -35 -21 c-42 -25 -50 -25 -104 0 -55 25 -55 25 -111 -7z m65 -51
c15 -10 24 -22 20 -25 -10 -11 -43 -8 -43 3 0 5 -12 16 -27 24 l-28 15 25 1
c14 0 37 -8 53 -18z m254 -169 c-3 -3 -11 -2 -17 2 -8 5 -7 11 2 22 12 15 13
14 16 -1 2 -10 1 -20 -1 -23z"/>
<path d="M2005 1197 l-40 -23 -3 -69 -3 -70 66 3 c54 3 65 1 65 -12 0 -21 -39
-36 -91 -36 -21 0 -39 -3 -39 -7 0 -24 46 -76 78 -90 51 -23 186 -23 228 0 81
43 109 127 60 184 -20 23 -32 28 -70 28 -36 0 -46 3 -43 15 2 11 16 15 55 15
41 0 57 4 68 19 19 27 18 30 -18 42 -18 6 -40 14 -49 18 -9 4 -29 -3 -50 -17
-33 -22 -34 -25 -37 -97 l-3 -75 53 3 c83 5 116 -37 52 -67 -31 -14 -144 -14
-180 -1 l-28 11 27 25 c30 28 35 65 12 88 -19 19 -76 30 -104 21 -24 -7 -28 7
-6 25 10 8 31 10 64 5 46 -6 51 -5 67 19 19 31 21 29 -31 45 -22 7 -44 14 -50
16 -5 3 -28 -6 -50 -18z"/>
<path d="M2536 1210 c-16 -5 -44 -24 -63 -42 -28 -27 -33 -39 -33 -79 0 -48 0
-48 37 -51 48 -4 52 -20 9 -40 -64 -31 -58 -111 9 -124 47 -9 85 16 85 55 0
36 -26 48 -52 25 -10 -10 -21 -14 -25 -10 -4 3 10 21 30 40 56 51 50 97 -17
120 l-37 13 27 18 c40 26 116 16 154 -20 17 -16 30 -32 30 -36 0 -3 -18 -29
-40 -57 -22 -27 -40 -54 -40 -60 0 -19 70 -71 112 -83 49 -13 128 -5 177 18
69 33 93 126 47 180 -21 24 -31 28 -75 27 -46 0 -49 1 -39 19 8 17 17 18 59
13 44 -6 50 -4 65 19 9 14 15 27 13 28 -2 1 -17 7 -34 13 -16 7 -37 14 -46 18
-8 4 -30 -3 -50 -17 -33 -22 -34 -25 -37 -97 l-3 -75 53 3 c59 4 93 -13 83
-40 -11 -27 -60 -41 -131 -36 -58 4 -70 8 -90 32 l-24 27 35 52 c19 28 35 57
35 63 0 20 -67 72 -107 83 -44 13 -77 13 -117 1z"/>
<path d="M3105 1197 l-40 -23 -3 -69 -3 -70 66 3 c54 3 65 1 65 -12 0 -21 -39
-36 -91 -36 -45 0 -46 -3 -19 -48 29 -47 79 -66 175 -66 90 0 126 14 169 64
61 73 7 187 -79 166 -35 -9 -32 10 5 29 61 32 194 5 255 -51 25 -23 26 -27 12
-47 -8 -12 -39 -31 -68 -43 -62 -23 -66 -41 -21 -86 38 -38 75 -45 101 -19 20
20 21 31 19 143 l-3 122 -32 22 c-18 12 -62 27 -98 34 -78 15 -141 3 -192 -36
-31 -23 -33 -29 -33 -87 l0 -62 53 3 c77 5 104 -38 41 -67 -31 -14 -144 -14
-180 -1 l-28 11 27 25 c30 28 35 65 12 88 -19 19 -76 30 -104 21 -24 -7 -28 7
-6 25 10 8 31 10 64 5 46 -6 51 -5 67 19 19 31 21 29 -31 45 -22 7 -44 14 -50
16 -5 3 -28 -6 -50 -18z m525 -217 c0 -5 -7 -10 -16 -10 -8 0 -12 5 -9 10 3 6
10 10 16 10 5 0 9 -4 9 -10z"/>
<path d="M3778 1193 c-39 -21 -48 -31 -48 -54 0 -22 5 -27 28 -31 62 -8 81 11
35 36 -27 15 -27 15 -5 16 23 0 82 -29 82 -40 0 -3 -19 -11 -43 -17 -64 -18
-92 -53 -92 -118 0 -64 28 -101 83 -111 45 -9 99 17 108 51 16 64 -26 106 -88
89 -45 -13 -51 -49 -11 -66 l28 -12 -28 -4 c-77 -10 -76 85 0 104 30 8 242 -2
251 -11 9 -9 -17 -24 -65 -37 -24 -7 -43 -17 -43 -23 0 -23 40 -72 69 -84 26
-12 34 -11 56 3 24 16 25 21 25 116 l0 99 -57 6 c-32 3 -76 9 -98 14 l-40 8
27 12 c22 11 34 11 74 -3 65 -22 81 -20 100 9 9 14 15 27 13 29 -2 3 -28 14
-58 25 l-53 22 -35 -21 c-42 -25 -50 -25 -104 0 -55 25 -55 25 -111 -7z m319
-220 c-3 -3 -11 -2 -17 2 -8 5 -7 11 2 22 12 15 13 14 16 -1 2 -10 1 -20 -1
-23z"/>
<path d="M3233 1004 c-10 -21 -9 -26 5 -32 34 -13 101 -7 119 11 16 16 16 17
-17 17 -19 0 -48 7 -64 15 -15 8 -29 15 -30 15 0 0 -6 -12 -13 -26z"/>
<path d="M915 845 c-47 -17 -65 -38 -65 -76 0 -46 63 -77 89 -45 9 11 9 15 -1
19 -9 3 -7 7 6 12 11 5 21 3 25 -4 10 -15 41 -3 41 15 0 22 -44 27 -85 10 -44
-19 -45 -19 -45 -6 0 5 13 16 30 25 36 18 170 21 188 3 15 -15 15 -28 1 -28
-5 0 -7 5 -4 10 8 13 -1 13 -26 0 -27 -15 -24 -48 6 -62 38 -17 55 4 55 67 l0
53 -50 11 c-67 14 -116 13 -165 -4z"/>
<path d="M1560 843 c-56 -30 -63 -111 -10 -128 31 -10 60 12 60 46 0 36 -25
49 -48 25 -16 -16 -16 -18 2 -32 19 -14 19 -14 -1 -14 -29 0 -36 27 -13 50 15
15 34 20 69 20 64 0 80 -24 28 -43 -18 -6 7 -37 40 -48 77 -25 163 14 163 75
0 50 -16 64 -24 22 -4 -20 -15 -40 -26 -46 -24 -13 -100 -13 -100 0 0 6 4 10
10 10 5 0 14 9 19 19 24 44 -104 78 -169 44z"/>
<path d="M1667 693 c-4 -3 -7 -15 -7 -25 0 -15 5 -17 26 -12 19 5 25 4 20 -5
-4 -6 -16 -11 -27 -11 -28 0 -23 -29 7 -40 42 -16 64 -12 95 19 36 37 38 60 3
32 -15 -12 -35 -21 -46 -21 -16 0 -17 3 -8 21 9 15 8 24 -1 35 -12 14 -51 19
-62 7z"/>
<path d="M1053 459 c-17 -5 -43 -23 -58 -41 -26 -31 -26 -32 -23 -176 3 -144
3 -144 31 -168 22 -19 40 -24 81 -24 30 0 60 6 72 15 25 19 34 19 34 0 0 -11
12 -15 50 -15 l50 0 0 115 0 116 -77 -3 -78 -3 -3 -30 c-2 -23 2 -32 20 -40
30 -13 34 -49 9 -74 -25 -25 -35 -26 -55 -5 -13 12 -16 39 -16 125 0 120 9
149 43 149 29 0 47 -18 47 -47 0 -21 4 -23 55 -23 l55 0 0 40 c0 48 -23 74
-77 89 -45 13 -116 13 -160 0z"/>
<path d="M2930 255 l0 -205 65 0 65 0 0 148 c0 83 4 141 9 132 4 -8 23 -75 41
-148 l32 -132 43 0 c33 0 45 4 49 18 2 9 20 78 38 152 l33 135 3 -152 3 -153
64 0 65 0 0 205 0 206 -107 -3 -107 -3 -8 -35 c-4 -19 -13 -62 -19 -95 -13
-67 -15 -65 -38 49 l-16 81 -107 3 -108 3 0 -206z"/>
<path d="M1370 245 l0 -196 51 3 51 3 0 190 0 190 -51 3 -51 3 0 -196z"/>
<path d="M1914 427 c-2 -7 -3 -94 -2 -192 l3 -180 55 -1 c30 -1 72 -5 92 -9
43 -8 104 9 117 33 33 61 23 211 -16 250 -22 22 -30 24 -84 19 l-59 -5 0 49 0
49 -50 0 c-32 0 -52 -5 -56 -13z m166 -146 c11 -21 14 -139 4 -165 -8 -21 -50
-21 -58 0 -10 26 -7 144 4 165 6 10 17 19 25 19 8 0 19 -9 25 -19z"/>
<path d="M2634 427 c-2 -7 -3 -94 -2 -192 l3 -180 53 -3 52 -3 0 195 0 196
-50 0 c-32 0 -52 -5 -56 -13z"/>
<path d="M4210 380 c0 -39 -1 -40 -35 -40 -31 0 -35 -3 -35 -25 0 -22 4 -25
35 -25 l35 0 0 -104 c0 -129 6 -136 117 -136 71 0 73 1 73 24 0 21 -6 25 -32
28 l-33 3 -3 93 -3 92 36 0 c31 0 35 3 35 25 0 22 -4 25 -34 25 -33 0 -35 2
-38 38 l-3 37 -57 3 -58 3 0 -41z"/>
<path d="M1613 336 c-17 -8 -36 -24 -42 -35 -18 -33 -24 -132 -12 -179 17 -60
46 -76 137 -76 120 0 152 40 141 178 -8 96 -30 117 -123 122 -46 3 -79 0 -101
-10z m117 -55 c11 -21 13 -122 4 -158 -7 -25 -32 -37 -58 -27 -13 5 -16 22
-16 98 0 51 3 96 7 99 13 14 53 6 63 -12z"/>
<path d="M2333 344 c-25 -6 -63 -49 -63 -70 0 -10 14 -14 49 -14 39 0 51 4 63
22 11 16 20 20 41 14 29 -7 35 -27 15 -43 -7 -5 -41 -20 -76 -33 -70 -25 -92
-49 -92 -97 0 -58 63 -93 138 -77 20 4 62 6 92 5 l55 -3 -3 129 c-5 161 -7
165 -119 169 -43 1 -88 0 -100 -2z m112 -191 c-9 -49 -12 -53 -41 -53 -20 0
-24 5 -24 29 0 30 30 61 58 61 11 0 13 -9 7 -37z"/>
<path d="M3559 329 c-24 -9 -49 -45 -49 -69 0 -6 25 -10 55 -10 43 0 55 3 55
15 0 18 36 34 62 27 10 -2 18 -12 18 -22 0 -13 -16 -25 -57 -40 -102 -37 -114
-42 -123 -61 -17 -31 -11 -69 15 -94 20 -21 34 -25 80 -25 31 0 65 5 76 10 13
7 19 7 19 0 0 -5 23 -10 53 -10 l52 0 -3 122 c-4 160 -6 162 -135 165 -50 1
-104 -2 -118 -8z m141 -173 c0 -42 -32 -71 -62 -55 -33 18 -15 65 32 82 27 10
30 7 30 -27z"/>
<path d="M3880 195 l0 -145 60 0 60 0 0 83 0 83 45 22 c42 20 45 24 45 62 l0
40 -40 -20 c-50 -25 -64 -25 -57 0 5 18 0 20 -54 20 l-59 0 0 -145z"/>
</g>
</svg>
